# xmcd
#
# Track frame offsets:
#	150
#	14765
#	39635
#	51860
#	65845
#	76785
#	90662
#	101780
#	124545
#	137842
#	150890
#	162382
#	175402
#	186395
#	199737
#	212010
#	224985
#	239095
#	257432
#	273300
#
# Disc length: 3836 seconds
#
# Revision: 1
# Processed by: cddbd v1.5.1PL0 Copyright (c) Steve Scherf et al.
# Submitted via: audiograbber 1.82.02
#
DISCID=2e0efa14
DTITLE=Various Artist - Boogie Time
DYEAR=1900
DGENRE=Swing
TTITLE0=Gary Bass - Put It Where You Want It
TTITLE1=Brenton Wood - Soothe Me
TTITLE2=Bill Pinkney - Ain't Got No Money
TTITLE3=Clovers - Going Home to Jesus
TTITLE4=Bobby Smith - Belly Roll Me
TTITLE5=Gary Bass - You Don't Know What You Mean To Me
TTITLE6=Jimmy Liggins - I Ain't Drunk
TTITLE7=Big Joe Turner - Hanging on the Wall
TTITLE8=Amos Milburn - Bad Whiskey
TTITLE9=Louie Jordan - Dollar Down
TTITLE10=Harmonica Fats - Tore Up
TTITLE11=Little Esther - T'aint What You Do
TTITLE12=Calvin Boze - Safronia B
TTITLE13=Supercharge - Red Dress
TTITLE14=Eugene Church - Miami
TTITLE15=Amos Milburn - Chicken Shack Boogie
TTITLE16=Rudy Blue Shoes - Mohari
TTITLE17=Dynamic Breakers - Do Me
TTITLE18=Steve Jarrell - Coupe De Ville
TTITLE19=Rosco Gordon - Last Call for Alcohol
EXTD=
EXTT0=
EXTT1=
EXTT2=
EXTT3=
EXTT4=
EXTT5=
EXTT6=
EXTT7=
EXTT8=
EXTT9=
EXTT10=
EXTT11=
EXTT12=
EXTT13=
EXTT14=
EXTT15=
EXTT16=
EXTT17=
EXTT18=
EXTT19=
PLAYORDER=
